<svg xmlns="http://www.w3.org/2000/svg" xmlns:xlink="http://www.w3.org/1999/xlink" width="500" zoomAndPan="magnify" viewBox="0 0 375 374.999991" height="500" preserveAspectRatio="xMidYMid meet" version="1.2"><defs><clipPath id="b130ced686"><path d="M 10.4375 66 L 362.1875 66 L 362.1875 223.546875 L 10.4375 223.546875 Z M 10.4375 66 "/></clipPath></defs><g id="12ce048694"><rect x="0" width="375" y="0" height="374.999991" style="fill:#ffffff;fill-opacity:1;stroke:none;"/><rect x="0" width="375" y="0" height="374.999991" style="fill:#ffffff;fill-opacity:1;stroke:none;"/><g clip-rule="nonzero" clip-path="url(#b130ced686)"><path style=" stroke:none;fill-rule:evenodd;fill:#000000;fill-opacity:1;" d="M 265.011719 199.792969 C 273.285156 199.792969 281.5625 199.792969 289.84375 199.792969 C 277.636719 165.53125 256.019531 162.113281 230.273438 172.277344 C 246.476562 170.878906 259.171875 177.503906 265.011719 199.792969 M 288.253906 114.617188 C 268.386719 108.609375 248.152344 104.976562 227.648438 103.199219 C 225.734375 99.933594 223.6875 97.113281 221.5 94.6875 C 233.019531 95.941406 244.039062 98.589844 255.015625 101.378906 C 242.609375 96.605469 230.144531 92.054688 216.855469 90.261719 C 203.878906 79.757812 186.929688 80.113281 166.726562 83.054688 C 213.75 68.886719 261.964844 83.636719 288.253906 114.617188 Z M 160.417969 189.171875 L 166.765625 189.171875 C 165.878906 152.851562 164.988281 116.523438 164.101562 80.207031 C 163.859375 70.269531 156.144531 65.355469 146.609375 66.65625 C 146.660156 69.398438 146.722656 72.144531 146.773438 74.890625 C 154.367188 74.214844 156.441406 76.589844 156.75 83.214844 L 159.683594 146.265625 Z M 202.976562 132.0625 C 207.726562 132.0625 211.585938 136.980469 211.585938 143.050781 C 211.585938 147.171875 209.808594 150.765625 207.167969 152.648438 L 207.109375 153.246094 C 207.046875 153.828125 207.09375 154.433594 207.378906 154.953125 C 208.839844 157.59375 216.015625 156.683594 218.324219 156.359375 L 219.328125 156.214844 L 219.617188 158.226562 L 218.613281 158.371094 C 215.132812 158.863281 207.703125 159.734375 205.601562 155.9375 C 205.214844 155.242188 205.058594 154.484375 205.058594 153.714844 C 204.390625 153.925781 203.695312 154.039062 202.976562 154.039062 C 198.226562 154.039062 194.371094 149.125 194.371094 143.050781 C 194.371094 141.304688 194.6875 139.65625 195.253906 138.1875 C 196.140625 140.753906 197.296875 143.164062 198.808594 145.394531 C 198.476562 141.660156 197.859375 138.015625 197.949219 134.144531 C 199.363281 132.835938 201.101562 132.0625 202.976562 132.0625 Z M 191.253906 109.167969 L 209.503906 109.167969 L 201.375 111.625 L 193.976562 111.625 C 187.027344 111.625 181.347656 117.3125 181.347656 124.253906 L 181.347656 160.535156 C 181.347656 167.484375 187.035156 173.164062 193.976562 173.164062 L 198.953125 173.164062 L 209.503906 175.621094 L 191.261719 175.621094 C 183.757812 175.621094 177.617188 169.480469 177.617188 161.976562 L 177.617188 122.808594 C 177.617188 115.300781 183.75 109.167969 191.253906 109.167969 Z M 235.554688 193.382812 C 244.191406 192.703125 251.1875 201.4375 251.1875 212.882812 C 251.1875 213.566406 251.164062 214.246094 251.109375 214.917969 L 245.558594 214.917969 C 245.429688 203.628906 238.480469 195.070312 229.925781 195.742188 C 229.585938 195.773438 229.253906 195.808594 228.921875 195.863281 C 230.933594 194.449219 233.179688 193.570312 235.554688 193.382812 Z M 236.195312 189.753906 C 246.664062 188.929688 255.15625 199.515625 255.15625 213.398438 C 255.15625 216.800781 254.644531 220.089844 253.71875 223.121094 L 217.9375 223.121094 C 217.484375 220.996094 217.234375 218.738281 217.234375 216.386719 C 217.234375 202.5 225.722656 190.578125 236.195312 189.753906 Z M 211.917969 223.128906 L 15.195312 223.128906 L 15.195312 212.9375 L 212.46875 189.304688 L 212.402344 193.398438 L 150.199219 200.566406 L 154.890625 212.753906 L 189.394531 212.914062 L 156.546875 217.058594 L 207.554688 217.058594 L 209.007812 206.488281 L 212.226562 204.371094 Z M 150.433594 83.746094 L 10.4375 153.214844 L 150.433594 100.871094 Z M 150.675781 167.316406 L 10.4375 205.558594 L 150.675781 184.445312 Z M 150.433594 111.980469 L 10.4375 168.835938 L 150.433594 129.105469 Z M 150.433594 141.476562 L 10.4375 188.179688 L 150.433594 158.613281 Z M 362.1875 223.492188 C 330.828125 222.011719 299.472656 220.527344 268.105469 219.054688 C 276.351562 218.433594 284.59375 217.808594 292.839844 217.1875 C 292.945312 214.246094 293.042969 211.296875 293.148438 208.355469 C 312.230469 208.332031 331.304688 208.316406 350.386719 208.292969 C 334.316406 205.949219 318.242188 203.597656 302.171875 201.253906 C 298.320312 200.695312 296.695312 198.75 296.535156 194.863281 L 296 181.910156 C 309.191406 182.0625 322.265625 182.660156 335.292969 183.460938 C 322.320312 181.035156 309.183594 179.105469 295.824219 177.8125 L 295.691406 174.492188 C 308.886719 175.03125 322.09375 176.042969 335.292969 177.238281 C 322.0625 174.449219 308.820312 171.90625 295.515625 170.335938 L 295.3125 165.351562 C 308.949219 165.757812 322.214844 167.082031 335.214844 169.070312 C 322.367188 164.699219 308.925781 161.140625 295.015625 158.242188 C 280.398438 152.285156 265.058594 148.3125 249.589844 144.691406 C 265.859375 144.246094 281.804688 145.765625 297.4375 149.132812 C 277.679688 141.472656 255.695312 138.273438 232.769531 136.957031 C 229.085938 128.3125 225.402344 119.664062 221.71875 111.019531 C 223.1875 111.019531 224.65625 111.027344 226.121094 111.027344 C 229.046875 115.730469 231.976562 120.433594 234.894531 125.136719 C 253.554688 127.585938 272.21875 130.046875 290.878906 132.496094 C 290.773438 129.03125 289.222656 125.710938 287 122.460938 C 296.273438 126.890625 304.070312 134.96875 308.894531 150.394531 C 327.472656 157.246094 347.921875 162.726562 349.535156 181.980469 C 354.019531 184.679688 361.929688 195.4375 361.984375 201.011719 C 362.042969 208.5 362.117188 215.992188 362.1875 223.492188 Z M 362.1875 223.492188 "/></g><g style="fill:#000000;fill-opacity:1;"><g transform="translate(11.733413, 292.462412)"><path style="stroke:none" d="M 14.3125 -10.15625 L 14.3125 -60.359375 C 14.3125 -61.179688 13.90625 -61.59375 13.09375 -61.59375 L 5.078125 -61.59375 C 4.253906 -61.59375 3.84375 -61.179688 3.84375 -60.359375 L 3.84375 -1.234375 C 3.84375 -0.410156 4.253906 0 5.078125 0 L 32.640625 0 C 33.460938 0 33.875 -0.410156 33.875 -1.234375 L 33.875 -8.9375 C 33.875 -9.75 33.460938 -10.15625 32.640625 -10.15625 Z M 14.3125 -10.15625 "/></g></g><g style="fill:#000000;fill-opacity:1;"><g transform="translate(49.454327, 292.462412)"><path style="stroke:none" d="M 3.84375 -11.078125 L 3.84375 -50.5 C 3.84375 -54.144531 4.789062 -56.90625 6.6875 -58.78125 C 8.59375 -60.65625 11.34375 -61.59375 14.9375 -61.59375 L 23.5625 -61.59375 C 27.195312 -61.59375 29.953125 -60.65625 31.828125 -58.78125 C 33.703125 -56.90625 34.640625 -54.144531 34.640625 -50.5 L 34.640625 -11.078125 C 34.640625 -7.492188 33.703125 -4.75 31.828125 -2.84375 C 29.953125 -0.945312 27.195312 0 23.5625 0 L 14.9375 0 C 11.34375 0 8.59375 -0.945312 6.6875 -2.84375 C 4.789062 -4.75 3.84375 -7.492188 3.84375 -11.078125 Z M 17.171875 -9.9375 L 21.625 -9.9375 C 23.6875 -9.9375 24.71875 -10.960938 24.71875 -13.015625 L 24.71875 -48.578125 C 24.71875 -50.628906 23.6875 -51.65625 21.625 -51.65625 L 17.171875 -51.65625 C 15.117188 -51.65625 14.09375 -50.628906 14.09375 -48.578125 L 14.09375 -13.015625 C 14.09375 -10.960938 15.117188 -9.9375 17.171875 -9.9375 Z M 17.171875 -9.9375 "/></g></g><g style="fill:#000000;fill-opacity:1;"><g transform="translate(87.945058, 292.462412)"><path style="stroke:none" d="M 40.953125 0 L 32.796875 0 C 32.128906 0 31.71875 -0.359375 31.5625 -1.078125 L 29.40625 -12.3125 L 15.703125 -12.3125 L 13.625 -1.078125 C 13.46875 -0.359375 13.054688 0 12.390625 0 L 4.15625 0 C 3.226562 0 2.894531 -0.4375 3.15625 -1.3125 L 15.9375 -60.515625 C 16.09375 -61.234375 16.53125 -61.59375 17.25 -61.59375 L 27.953125 -61.59375 C 28.660156 -61.59375 29.09375 -61.234375 29.25 -60.515625 L 42.03125 -1.3125 C 42.1875 -0.4375 41.828125 0 40.953125 0 Z M 27.484375 -21.25 L 22.5625 -48.109375 L 17.625 -21.25 Z M 27.484375 -21.25 "/></g></g><g style="fill:#000000;fill-opacity:1;"><g transform="translate(133.056191, 292.462412)"><path style="stroke:none" d="M 3.84375 -1.234375 L 3.84375 -60.359375 C 3.84375 -61.179688 4.253906 -61.59375 5.078125 -61.59375 L 23.5625 -61.59375 C 27.195312 -61.59375 29.953125 -60.640625 31.828125 -58.734375 C 33.703125 -56.835938 34.640625 -54.066406 34.640625 -50.421875 L 34.640625 -11.078125 C 34.640625 -7.492188 33.703125 -4.75 31.828125 -2.84375 C 29.953125 -0.945312 27.195312 0 23.5625 0 L 5.078125 0 C 4.253906 0 3.84375 -0.410156 3.84375 -1.234375 Z M 14.3125 -10.15625 L 21.40625 -10.15625 C 23.457031 -10.15625 24.484375 -11.179688 24.484375 -13.234375 L 24.484375 -48.265625 C 24.484375 -50.367188 23.457031 -51.421875 21.40625 -51.421875 L 14.3125 -51.421875 Z M 14.3125 -10.15625 "/></g></g><g style="fill:#000000;fill-opacity:1;"><g transform="translate(171.563771, 292.462412)"><path style="stroke:none" d=""/></g></g><g style="fill:#000000;fill-opacity:1;"><g transform="translate(190.809127, 292.462412)"><path style="stroke:none" d=""/></g></g><g style="fill:#000000;fill-opacity:1;"><g transform="translate(210.054484, 292.462412)"><path style="stroke:none" d=""/></g></g><g style="fill:#000000;fill-opacity:1;"><g transform="translate(229.29984, 292.462412)"><path style="stroke:none" d=""/></g></g><g style="fill:#000000;fill-opacity:1;"><g transform="translate(248.545196, 292.462412)"><path style="stroke:none" d=""/></g></g><g style="fill:#000000;fill-opacity:1;"><g transform="translate(267.790553, 292.462412)"><path style="stroke:none" d=""/></g></g><g style="fill:#000000;fill-opacity:1;"><g transform="translate(287.045542, 292.462412)"><path style="stroke:none" d="M 3.84375 -11.078125 L 3.84375 -50.5 C 3.84375 -54.144531 4.789062 -56.90625 6.6875 -58.78125 C 8.59375 -60.65625 11.34375 -61.59375 14.9375 -61.59375 L 25.09375 -61.59375 C 28.6875 -61.59375 31.429688 -60.65625 33.328125 -58.78125 C 35.234375 -56.90625 36.1875 -54.144531 36.1875 -50.5 L 36.1875 -42.5 C 36.1875 -41.675781 35.773438 -41.265625 34.953125 -41.265625 L 27.25 -41.265625 C 26.425781 -41.265625 26.015625 -41.675781 26.015625 -42.5 L 26.015625 -48.34375 C 26.015625 -50.394531 24.988281 -51.421875 22.9375 -51.421875 L 17.40625 -51.421875 C 15.34375 -51.421875 14.3125 -50.394531 14.3125 -48.34375 L 14.3125 -13.234375 C 14.3125 -11.179688 15.34375 -10.15625 17.40625 -10.15625 L 22.9375 -10.15625 C 24.988281 -10.15625 26.015625 -11.179688 26.015625 -13.234375 L 26.015625 -23.5625 L 22.015625 -23.5625 C 21.191406 -23.5625 20.78125 -23.96875 20.78125 -24.78125 L 20.78125 -32.484375 C 20.78125 -33.304688 21.191406 -33.71875 22.015625 -33.71875 L 34.953125 -33.71875 C 35.773438 -33.71875 36.1875 -33.304688 36.1875 -32.484375 L 36.1875 -11.078125 C 36.1875 -7.492188 35.234375 -4.75 33.328125 -2.84375 C 31.429688 -0.945312 28.6875 0 25.09375 0 L 14.9375 0 C 11.34375 0 8.59375 -0.945312 6.6875 -2.84375 C 4.789062 -4.75 3.84375 -7.492188 3.84375 -11.078125 Z M 3.84375 -11.078125 "/></g></g><g style="fill:#000000;fill-opacity:1;"><g transform="translate(327.075891, 292.462412)"><path style="stroke:none" d="M 3.84375 -11.078125 L 3.84375 -50.5 C 3.84375 -54.144531 4.789062 -56.90625 6.6875 -58.78125 C 8.59375 -60.65625 11.34375 -61.59375 14.9375 -61.59375 L 23.5625 -61.59375 C 27.195312 -61.59375 29.953125 -60.65625 31.828125 -58.78125 C 33.703125 -56.90625 34.640625 -54.144531 34.640625 -50.5 L 34.640625 -11.078125 C 34.640625 -7.492188 33.703125 -4.75 31.828125 -2.84375 C 29.953125 -0.945312 27.195312 0 23.5625 0 L 14.9375 0 C 11.34375 0 8.59375 -0.945312 6.6875 -2.84375 C 4.789062 -4.75 3.84375 -7.492188 3.84375 -11.078125 Z M 17.171875 -9.9375 L 21.625 -9.9375 C 23.6875 -9.9375 24.71875 -10.960938 24.71875 -13.015625 L 24.71875 -48.578125 C 24.71875 -50.628906 23.6875 -51.65625 21.625 -51.65625 L 17.171875 -51.65625 C 15.117188 -51.65625 14.09375 -50.628906 14.09375 -48.578125 L 14.09375 -13.015625 C 14.09375 -10.960938 15.117188 -9.9375 17.171875 -9.9375 Z M 17.171875 -9.9375 "/></g></g><g style="fill:#000000;fill-opacity:1;"><g transform="translate(207.672772, 294.615141)"><path style="stroke:none" d="M 14.953125 -61.359375 L 28.84375 -61.359375 C 29.863281 -61.359375 30.375 -60.847656 30.375 -59.828125 L 30.375 -52.765625 C 30.375 -51.742188 29.863281 -51.234375 28.84375 -51.234375 L 17.109375 -51.234375 C 15.054688 -51.234375 14.03125 -50.210938 14.03125 -48.171875 L 14.03125 -39.5 C 14.03125 -37.507812 15.054688 -36.515625 17.109375 -36.515625 L 24.234375 -36.515625 L 24.234375 -39.578125 C 24.234375 -40.597656 24.742188 -41.109375 25.765625 -41.109375 L 33.0625 -41.109375 C 34.082031 -41.109375 34.59375 -40.597656 34.59375 -39.578125 L 34.59375 -36.515625 L 37.8125 -36.515625 C 38.832031 -36.515625 39.34375 -36.003906 39.34375 -34.984375 L 39.34375 -27.921875 C 39.34375 -26.898438 38.832031 -26.390625 37.8125 -26.390625 L 34.59375 -26.390625 L 34.59375 -1.53125 C 34.59375 -0.507812 34.082031 0 33.0625 0 L 14.953125 0 C 11.378906 0 8.628906 -0.941406 6.703125 -2.828125 C 4.785156 -4.722656 3.828125 -7.460938 3.828125 -11.046875 L 3.828125 -25.921875 C 3.828125 -27.359375 4.285156 -28.570312 5.203125 -29.5625 C 6.128906 -30.5625 7.285156 -31.164062 8.671875 -31.375 L 8.671875 -31.53125 C 7.285156 -31.78125 6.128906 -32.390625 5.203125 -33.359375 C 4.285156 -34.335938 3.828125 -35.539062 3.828125 -36.96875 L 3.828125 -50.3125 C 3.828125 -53.945312 4.785156 -56.695312 6.703125 -58.5625 C 8.628906 -60.425781 11.378906 -61.359375 14.953125 -61.359375 Z M 24.234375 -26.390625 L 17.109375 -26.390625 C 15.054688 -26.390625 14.03125 -25.363281 14.03125 -23.3125 L 14.03125 -13.1875 C 14.03125 -11.144531 15.054688 -10.125 17.109375 -10.125 L 24.234375 -10.125 Z M 24.234375 -26.390625 "/></g></g></g></svg>